<?xml version="1.0" encoding="UTF-8"?>
<svg version="1.1" xmlns="http://www.w3.org/2000/svg" width="250" height="167">
<path d="M0 0 C82.5 0 165 0 250 0 C250 55.11 250 110.22 250 167 C167.5 167 85 167 0 167 C0 111.89 0 56.78 0 0 Z " fill="#FEFEFE" transform="translate(0,0)"/>
<path d="M0 0 C2.85058021 1.56832997 5.04639961 3.39519948 7 6 C7.3470195 7.32983697 7.68255428 8.66279504 8 10 C8.66 10.33 9.32 10.66 10 11 C10.061875 10.278125 10.12375 9.55625 10.1875 8.8125 C11.24812745 5.1410973 13.19669931 3.52297062 16 1 C16.33 0.67 16.66 0.34 17 0 C22.02182309 -0.57689493 25.93917616 -0.53041192 30.5 1.75 C32.81766703 3.83590033 34.05368212 5.06641459 35 8 C35 8.99 35 9.98 35 11 C35.99 11 36.98 11 38 11 C37.855625 10.29875 37.71125 9.5975 37.5625 8.875 C38.15605846 4.97447296 39.75171271 3.56699066 42.80078125 1.1796875 C46.80252272 -0.96689496 50.62418472 -0.98599785 55 0 C58.11116179 1.71239349 60.38689318 3.77378636 62 7 C62.51093875 11.05831354 62.91678528 15.19576657 61.0234375 18.921875 C58.78413598 21.69696032 56.40947019 23.90017091 53 25 C51.68 25 50.36 25 49 25 C48.7525 25.9075 48.505 26.815 48.25 27.75 C46.94222408 31.15021739 45.79070474 32.71669612 43 35 C38.47379864 36.50873379 33.55237149 37.22598382 29.11328125 35.09375 C26.19680669 32.8905053 25.05624906 31.21294287 24.125 27.6875 C24.08375 26.800625 24.0425 25.91375 24 25 C23.01 25 22.02 25 21 25 C20.9071875 26.0828125 20.9071875 26.0828125 20.8125 27.1875 C19.7463595 30.87798635 17.85208836 32.49572729 15 35 C11.5053413 36.74732935 7.81294193 36.56298471 4 36 C1.19668356 34.65626154 0.12303705 33.44149261 -2 31 C-2.875 27.6875 -2.875 27.6875 -3 25 C-3.845625 25.12375 -4.69125 25.2475 -5.5625 25.375 C-10.33734957 24.85410732 -12.7765043 22.42773923 -16 19 C-17.86233425 15.27533151 -17.57130829 11.05504687 -17 7 C-13.19941134 -0.10483178 -7.49190675 -1.19646869 0 0 Z " fill="#FAF9F8" transform="translate(103,114)"/>
<path d="M0 0 C8.79880781 4.09599674 15.48954827 8.58900174 19 18 C20.22078044 24.85760143 18.85328076 30.27991241 15 36 C11.60400351 40.64186502 7.57607849 44.32256002 3.22265625 48.046875 C0.63894261 50.31727363 -1.84648053 52.66468194 -4.3125 55.0625 C-5.13363281 55.85785156 -5.95476562 56.65320313 -6.80078125 57.47265625 C-10.18393762 61.36058195 -12.05449223 64.41972523 -11.875 69.625 C-11.01796896 72.93069116 -10.00545029 74.35645188 -8 77 C-7.9375 78.9375 -7.9375 78.9375 -9 81 C-11.8125 83.8125 -11.8125 83.8125 -15 86 C-20.11697347 85.54880394 -23.6426325 81.56376304 -27 78 C-30.00539285 73.80914663 -31.811728 69.40239835 -31.51171875 64.13671875 C-29.20793675 54.51710994 -21.26932599 47.81958424 -14.125 41.625 C-1.35903736 30.83233667 -1.35903736 30.83233667 4.23828125 15.6328125 C4.41613446 9.62324611 3.7520349 6.69004362 0 2 C0 1.34 0 0.68 0 0 Z " fill="#355CAE" transform="translate(127,21)"/>
<path d="M0 0 C5.95062208 2.4673311 10.73537072 6.39169068 14.171875 11.8671875 C16.18319274 17.04727941 16.09883459 23.30482698 14.0078125 28.43359375 C10.006676 34.77437786 4.38315142 39.84718944 -1 45 C-6.09402983 49.63285748 -6.09402983 49.63285748 -8.375 55.875 C-7.91830834 59.68076384 -6.58913266 61.24904655 -4 64 C-5.44245971 67.36573933 -7.083468 69.75010389 -10 72 C-15.16140536 72.28674474 -19.34506859 68.25815389 -23 65 C-26.42337194 61.06312227 -27.44687853 58.18728838 -27.53125 53.125 C-25.46144993 44.84579971 -16.86489955 38.79409629 -10.99804688 33.1640625 C-2.45940178 25.03013062 -2.45940178 25.03013062 1.5234375 14.296875 C1.47445312 13.12640625 1.42546875 11.9559375 1.375 10.75 C1.32472656 8.97882812 1.32472656 8.97882812 1.2734375 7.171875 C1.05489642 4.63679844 0.73215302 2.42450671 0 0 Z " fill="#B72D22" transform="translate(148,35)"/>
<path d="M0 0 C4.87466941 0.04881643 7.6040575 0.97490175 11.3125 4.3125 C13.09479676 6.98594514 13.3125 8.05020359 13.3125 11.3125 C14.3025 11.3125 15.2925 11.3125 16.3125 11.3125 C16.168125 10.61125 16.02375 9.91 15.875 9.1875 C16.46855846 5.28697296 18.06421271 3.87949066 21.11328125 1.4921875 C25.11502272 -0.65439496 28.93668472 -0.67349785 33.3125 0.3125 C36.42366179 2.02489349 38.69939318 4.08628636 40.3125 7.3125 C40.82343875 11.37081354 41.22928528 15.50826657 39.3359375 19.234375 C37.09663598 22.00946032 34.72197019 24.21267091 31.3125 25.3125 C29.9925 25.3125 28.6725 25.3125 27.3125 25.3125 C27.065 26.22 26.8175 27.1275 26.5625 28.0625 C25.25472408 31.46271739 24.10320474 33.02919612 21.3125 35.3125 C16.78629864 36.82123379 11.86487149 37.53848382 7.42578125 35.40625 C4.50930669 33.2030053 3.36874906 31.52544287 2.4375 28 C2.375625 26.6696875 2.375625 26.6696875 2.3125 25.3125 C0.7346875 25.18875 0.7346875 25.18875 -0.875 25.0625 C-5.03333134 24.2444676 -6.72484506 23.27515494 -9.6875 20.3125 C-11.39555274 17.62841712 -11.6875 16.55080467 -11.6875 13.3125 C-11.0275 13.3125 -10.3675 13.3125 -9.6875 13.3125 C-9.006875 14.735625 -9.006875 14.735625 -8.3125 16.1875 C-6.88511746 19.31563679 -6.88511746 19.31563679 -4.6875 21.3125 C-2.36474823 21.71297444 -0.03010643 22.0522104 2.3125 22.3125 C2.4053125 21.2296875 2.4053125 21.2296875 2.5 20.125 C3.57442665 16.40583083 5.36982994 14.76472505 8.3125 12.3125 C9.3025 12.3125 10.2925 12.3125 11.3125 12.3125 C10.47616179 7.3479501 10.47616179 7.3479501 7.1875 3.875 C3.30438404 3.11525992 0.28619203 2.93405314 -3.6875 3.3125 C-6.68915249 5.52424394 -8.22882445 7.90892372 -9.6875 11.3125 C-10.3475 11.3125 -11.0075 11.3125 -11.6875 11.3125 C-11.27235103 6.4690954 -9.22541301 4.49662171 -5.6875 1.3125 C-4.05640633 -0.31859367 -2.24562778 0.06377717 0 0 Z " fill="#3CA169" transform="translate(124.6875,113.6875)"/>
<path d="M0 0 C7.35778484 2.0533353 11.11248794 5.47453332 15 12 C16.4738815 16.4216445 16.95471454 20.56937472 15.234375 24.94921875 C10.42401607 33.29959534 2.7098885 39.72010188 -4.75 45.625 C-9.37127306 49.31288034 -12.73224104 53.10883514 -16 58 C-16.99361444 59.33809869 -17.99204801 60.67266788 -19 62 C-22.90674717 56.30266037 -23.03418566 49.70999201 -22 43 C-19.46614977 38.33175357 -16.07049863 34.92086844 -12.125 31.4375 C-11.62097656 30.98181641 -11.11695312 30.52613281 -10.59765625 30.05664062 C-8.03831589 27.75585256 -5.43668147 25.55086381 -2.7421875 23.41015625 C0.61461028 20.45980834 1.81270529 18.82336908 2.265625 14.4140625 C2.23655727 9.22547318 2.09670173 4.84862276 0 0 Z " fill="#FAFBFD" transform="translate(111,17)"/>
<path d="M0 0 C3.0173817 1.31190509 4.51255819 2.25723153 6.3125 5 C7 7 7 7 7 10 C5.34928604 11.02611949 3.68029994 12.02308143 2 13 C-0.08682069 15.38493793 -0.98851302 16.96553905 -2 20 C-8.31619537 20.48586118 -8.31619537 20.48586118 -11.375 18.3125 C-13.13434402 15.80881813 -13.66466723 14.01799494 -14 11 C-15.32 11 -16.64 11 -18 11 C-18 10.34 -18 9.68 -18 9 C-16.68 9 -15.36 9 -14 9 C-13.7525 8.071875 -13.505 7.14375 -13.25 6.1875 C-10.74054935 -0.21159916 -6.51523738 -0.95850411 0 0 Z " fill="#F7F8F5" transform="translate(129,116)"/>
<path d="M0 0 C2.7160945 1.37516549 3.90690551 2.6452687 6 5 C6.75 7.5625 6.75 7.5625 6 10 C4.00669158 11.34331654 2.00615134 12.67594012 0 14 C-1.42779274 17.10935018 -1.42779274 17.10935018 -2 20 C-5.1875 20.375 -5.1875 20.375 -9 20 C-12.01066181 17.43773463 -13.59121046 15.83955295 -14.4453125 11.99609375 C-14.65541713 8.30525566 -14.10705321 6.16771669 -12.125 3.0625 C-8.50220327 -0.45374388 -4.89523602 -0.80680742 0 0 Z " fill="#FAFCFC" transform="translate(102,116)"/>
<path d="M0 0 C2.8100346 1.79363911 4.50940468 3.01880935 6 6 C6.36846649 10.49529114 6.56340691 12.94079501 4.4375 16.9375 C1.33396421 19.56356875 -1.0009094 19.76928323 -5 20 C-5.31453125 19.44570312 -5.6290625 18.89140625 -5.953125 18.3203125 C-6.59507812 17.23363281 -6.59507812 17.23363281 -7.25 16.125 C-7.66765625 15.40570313 -8.0853125 14.68640625 -8.515625 13.9453125 C-10.15928076 11.79125838 -11.51567335 11.00859415 -14 10 C-14.375 7.8125 -14.375 7.8125 -14 5 C-9.57134571 0.01776392 -6.57922761 -0.93988966 0 0 Z " fill="#FDFBFB" transform="translate(157,116)"/>
<path d="M0 0 C0.99 0 1.98 0 3 0 C3.391875 1.258125 3.78375 2.51625 4.1875 3.8125 C5.36824996 7.01982562 5.83778145 7.87927922 8.6875 10 C9.450625 10.33 10.21375 10.66 11 11 C10.74919159 14.67852334 10.38558753 16.55599012 7.9375 19.375 C4.15608544 21.46684635 1.22903861 21.99104743 -3 21 C-6.22410993 18.59906707 -7.69450034 17.05749882 -8.8125 13.1875 C-8.874375 12.465625 -8.93625 11.74375 -9 11 C-8.071875 10.484375 -7.14375 9.96875 -6.1875 9.4375 C-2.40826979 6.96268495 -1.45118181 4.192303 0 0 Z " fill="#F6F7F6" transform="translate(138,127)"/>
<path d="M0 0 C7.35778484 2.0533353 11.11248794 5.47453332 15 12 C16.4738815 16.4216445 16.95471454 20.56937472 15.234375 24.94921875 C10.42401607 33.29959534 2.7098885 39.72010188 -4.75 45.625 C-9.37127306 49.31288034 -12.73224104 53.10883514 -16 58 C-16.99361444 59.33809869 -17.99204801 60.67266788 -19 62 C-22.90674717 56.30266037 -23.03418566 49.70999201 -22 43 C-19.46614977 38.33175357 -16.07049863 34.92086844 -12.125 31.4375 C-11.62097656 30.98181641 -11.11695312 30.52613281 -10.59765625 30.05664062 C-8.03831589 27.75585256 -5.43668147 25.55086381 -2.7421875 23.41015625 C0.61461028 20.45980834 1.81270529 18.82336908 2.265625 14.4140625 C2.23655727 9.22547318 2.09670173 4.84862276 0 0 Z M4 4 C4.05220703 5.06927734 4.05220703 5.06927734 4.10546875 6.16015625 C4.27526304 12.16763994 4.28968963 16.77519882 1 22 C-2.85326167 25.9164299 -7.05056388 29.39927051 -11.29296875 32.8828125 C-16.0380832 36.85339608 -20.34094691 40.58096455 -21.3046875 47.04296875 C-21.44179427 51.10285246 -20.8101851 54.3796298 -19 58 C-18.46890625 57.29617187 -17.9378125 56.59234375 -17.390625 55.8671875 C-14.7195955 52.66369787 -11.8346963 49.92047804 -8.75 47.125 C-7.8844751 46.33174316 -7.8844751 46.33174316 -7.00146484 45.52246094 C-3.92139142 42.70890745 -0.80226879 39.95379344 2.375 37.25 C10.21745909 30.70911727 10.21745909 30.70911727 14.23828125 21.828125 C14.44906875 14.50603305 12.78487592 11.11250838 7.875 5.625 C6.1616335 3.78168982 6.1616335 3.78168982 4 4 Z " fill="#5F80C1" transform="translate(111,17)"/>
<path d="M0 0 C3.11116179 1.71239349 5.38689318 3.77378636 7 7 C7.51093875 11.05831354 7.91678528 15.19576657 6.0234375 18.921875 C3.78413598 21.69696032 1.40947019 23.90017091 -2 25 C-3.32 25 -4.64 25 -6 25 C-6.33 25.66 -6.66 26.32 -7 27 C-7.66 27 -8.32 27 -9 27 C-9 26.01 -9 25.02 -9 24 C-9.763125 23.773125 -10.52625 23.54625 -11.3125 23.3125 C-14.59272703 21.71052866 -15.48290098 20.27374 -17 17 C-17 16.01 -17 15.02 -17 14 C-13.89347355 14.3358407 -12.39585697 14.59049279 -10.1875 16.875 C-9 19 -9 19 -9 22 C-7.39272673 21.77082032 -5.78912584 21.51579198 -4.1875 21.25 C-3.29417969 21.11078125 -2.40085938 20.9715625 -1.48046875 20.828125 C1.57684346 19.80741604 2.44664379 18.79000873 4 16 C4.62388198 11.08692938 4.75777063 9.13665594 2 5 C-1.3512502 2.7658332 -3.12946025 2.31374028 -7.06640625 2.57421875 C-10.18118856 3.26010011 -11.87562521 4.68250023 -14 7 C-14.86965506 9.12946603 -14.86965506 9.12946603 -15 11 C-15.66 11 -16.32 11 -17 11 C-17.4375 8.875 -17.4375 8.875 -17 6 C-12.67782976 0.02729226 -7.08546673 -1.59656076 0 0 Z " fill="#F0546B" transform="translate(158,114)"/>
<path d="M0 0 C3.15135762 1.42884136 5.10965635 3.10147307 7 6 C8.64307531 11.02683436 8.60369459 14.69973473 6.375 19.5 C3.96156111 22.04046198 2.34436469 23.07100981 -1 24 C-0.02415916 21.82312428 0.71819701 20.2425646 2.54296875 18.671875 C4.99335721 15.86016921 4.5316884 12.96693986 4.40625 9.38671875 C4.15225083 6.77874564 4.15225083 6.77874564 2 4.375 C-1.8475773 2.61152707 -4.84533167 2.05347274 -9 3 C-11.97717008 4.98478006 -13.62826444 6.36831119 -14.44140625 9.9375 C-14.65759758 13.6197266 -14.18139841 15.6720875 -12.375 18.9375 C-9.55599012 21.38558753 -7.67852334 21.74919159 -4 22 C-4 22.99 -4 23.98 -4 25 C-8.51131235 24.90977375 -11.28930394 24.26329122 -14.4375 21.0625 C-17.32164228 17.29450767 -17.81330091 14.05353583 -17.53515625 9.375 C-16.65793902 5.48194835 -14.90401081 3.69658146 -12 1 C-8.22459667 -0.88770166 -4.10241538 -0.61842381 0 0 Z " fill="#2592CF" transform="translate(103,114)"/>
<path d="M0 0 C4.87466941 0.04881643 7.6040575 0.97490175 11.3125 4.3125 C13.09479676 6.98594514 13.3125 8.05020359 13.3125 11.3125 C14.364375 11.395 15.41625 11.4775 16.5 11.5625 C20.69903624 12.38853992 22.39516635 13.22846157 25.3125 16.3125 C26.625 19.5625 26.625 19.5625 27.3125 22.3125 C26.3225 22.3125 25.3325 22.3125 24.3125 22.3125 C23.9825 21.384375 23.6525 20.45625 23.3125 19.5 C20.55499321 15.10522355 18.20327407 14.75567923 13.3125 13.3125 C13.23 14.034375 13.1475 14.75625 13.0625 15.5 C12.14318053 18.94744802 10.78968283 20.76454052 8.3125 23.3125 C6.0625 24.125 6.0625 24.125 4.3125 24.3125 C4.3125 22.3125 4.3125 22.3125 6.75 19.75 C7.595625 18.945625 8.44125 18.14125 9.3125 17.3125 C10.69427162 16.1573749 10.69427162 16.1573749 10.4375 13 C10.4410942 9.00544594 10.4410942 9.00544594 9.3125 5.3125 C5.1209904 2.77219115 1.05691799 2.86065067 -3.6875 3.3125 C-6.68915249 5.52424394 -8.22882445 7.90892372 -9.6875 11.3125 C-10.3475 11.3125 -11.0075 11.3125 -11.6875 11.3125 C-11.27235103 6.4690954 -9.22541301 4.49662171 -5.6875 1.3125 C-4.05640633 -0.31859367 -2.24562778 0.06377717 0 0 Z " fill="#252525" transform="translate(124.6875,113.6875)"/>
<path d="M0 0 C0.3125 2.1875 0.3125 2.1875 0 5 C-0.825 5.804375 -1.65 6.60875 -2.5 7.4375 C-5.23496601 9.78145009 -5.23496601 9.78145009 -5.625 13 C-4.76936783 17.10703441 -3.38121991 18.55401113 0 21 C3.88242397 21.554632 6.20510578 21.335622 9.8125 19.8125 C12.32841931 17.72788114 13.07870137 16.09891358 14 13 C14.66 13 15.32 13 16 13 C15.58534283 17.83766699 13.5801385 19.85646376 10 23 C6.49805644 24.75097178 2.82125728 24.5458939 -1 24 C-5.30494334 21.57357739 -7.23620113 19.29900507 -8.5625 14.625 C-9.35734625 9.80775002 -8.49713887 7.16189812 -6 3 C-2.80645161 0 -2.80645161 0 0 0 Z " fill="#FABA4B" transform="translate(108,126)"/>
<path d="M0 0 C3.10652645 0.3358407 4.60414303 0.59049279 6.8125 2.875 C8 5 8 5 8 8 C10.64 8.33 13.28 8.66 16 9 C15.67 9.66 15.34 10.32 15 11 C13.68 11 12.36 11 11 11 C10.67 11.66 10.34 12.32 10 13 C9.34 13 8.68 13 8 13 C8 12.01 8 11.02 8 10 C7.236875 9.773125 6.47375 9.54625 5.6875 9.3125 C2.40727297 7.71052866 1.51709902 6.27374 0 3 C0 2.01 0 1.02 0 0 Z " fill="#CC6B70" transform="translate(141,128)"/>
<path d="M0 0 C0.3403125 0.8353125 0.3403125 0.8353125 0.6875 1.6875 C2.46384764 4.81725537 4.1518522 6.77101476 7 9 C9.82468397 9.72046595 12.1762046 9.72742802 15 9 C17.87551522 6.79135579 17.87551522 6.79135579 20 4 C21 3 22 2 23 1 C22.68031467 4.51653861 22.37757864 6.53431968 20.125 9.3125 C16.43855076 12.2399744 12.83267303 12.39949627 8.29296875 12.34765625 C4.28333544 11.73972207 2.67498928 10.00936294 0 7 C-0.9375 4.3125 -0.9375 4.3125 -1 2 C-0.67 1.34 -0.34 0.68 0 0 Z " fill="#28B36B" transform="translate(128,138)"/>
<path d="M0 0 C0.66 0.33 1.32 0.66 2 1 C1.38511719 1.50789063 0.77023438 2.01578125 0.13671875 2.5390625 C-7.13044861 8.45785113 -7.13044861 8.45785113 -10.19921875 17.0078125 C-10.28185062 20.4529257 -10.09321852 23.72034444 -9 27 C-7.68 25.68 -6.36 24.36 -5 23 C-5 26.69418201 -6.28179295 28.77836178 -8 32 C-12.72877364 25.83203438 -12.65001846 20.70601596 -12 13 C-9.51286973 7.40395689 -4.66674892 3.82854645 0 0 Z " fill="#7C92C6" transform="translate(101,47)"/>
<path d="M0 0 C5.64107398 0.40293386 8.14685269 2.05724462 12 6 C12.875 8.8125 12.875 8.8125 13 11 C10.35175278 10.64212875 8.44464124 10.31760089 6.25 8.75 C4.68239911 6.55535876 4.35787125 4.64824722 4 2 C2.68 2 1.36 2 0 2 C0 1.34 0 0.68 0 0 Z " fill="#F1B44C" transform="translate(111,125)"/>
<path d="M0 0 C0.99 0.33 1.98 0.66 3 1 C5.71545664 6.85966959 5.69607312 12.40132701 4.0625 18.5 C1.74651034 23.41580157 -2.85926041 26.65789362 -7 30 C-7.66 29.67 -8.32 29.34 -9 29 C-8.37351562 28.46890625 -7.74703125 27.9378125 -7.1015625 27.390625 C-6.28429687 26.68421875 -5.46703125 25.9778125 -4.625 25.25 C-3.81289062 24.55390625 -3.00078125 23.8578125 -2.1640625 23.140625 C0.69935614 20.30821812 1.85341 18.42709681 2.265625 14.4140625 C2.23655727 9.22547318 2.09670173 4.84862276 0 0 Z " fill="#587CC2" transform="translate(111,17)"/>
<path d="M0 0 C0.3125 2.1875 0.3125 2.1875 0 5 C-2.375 7.5625 -2.375 7.5625 -5 10 C-6.29519995 12.16620544 -6.29519995 12.16620544 -7 14 C-8.47164835 6.7643956 -8.47164835 6.7643956 -6.1875 3.0625 C-2.93939394 0 -2.93939394 0 0 0 Z " fill="#F1BC5C" transform="translate(108,126)"/>
<path d="M0 0 C0.66 0 1.32 0 2 0 C3.5879397 8.73366834 3.5879397 8.73366834 1.375 13.5 C-1.03843889 16.04046198 -2.65563531 17.07100981 -6 18 C-5.02856429 15.83295111 -4.30833501 14.2579946 -2.46875 12.71875 C-0.41767872 10.3185602 -0.49567522 8.42647878 -0.3125 5.3125 C-0.24675781 4.31863281 -0.18101563 3.32476562 -0.11328125 2.30078125 C-0.07589844 1.54152344 -0.03851563 0.78226562 0 0 Z " fill="#3898CB" transform="translate(108,120)"/>
<path d="M0 0 C5.60237801 2.74626373 8.92747161 5.52785234 12 11 C13.28317892 14.84953676 13.06643637 17.94738135 13 22 C12.34 21.67 11.68 21.34 11 21 C10.578125 18.9609375 10.578125 18.9609375 10.25 16.375 C9.30236562 11.09857178 7.30344979 7.30697668 3 4 C2.01 4 1.02 4 0 4 C0 2.68 0 1.36 0 0 Z " fill="#7D98CB" transform="translate(114,18)"/>
<path d="M0 0 C0.33 0 0.66 0 1 0 C1.268125 1.258125 1.53625 2.51625 1.8125 3.8125 C2.84997629 8.10405911 2.84997629 8.10405911 6 11 C9.10839021 11.7269226 9.10839021 11.7269226 12 12 C12 12.99 12 13.98 12 15 C8.58050248 14.93161005 5.95584454 14.71790026 3.1640625 12.62109375 C1.44128385 10.81338939 0.14400874 9.2225208 -1 7 C-0.875 3.0625 -0.875 3.0625 0 0 Z " fill="#3198D1" transform="translate(87,124)"/>
<path d="M0 0 C5.24208995 0.41114431 8.33560611 1.12621217 12 5 C13.3125 8.25 13.3125 8.25 14 11 C13.01 11 12.02 11 11 11 C10.67 10.071875 10.34 9.14375 10 8.1875 C7.24249321 3.79272355 4.89077407 3.44317923 0 2 C0 1.34 0 0.68 0 0 Z " fill="#30AE6A" transform="translate(138,125)"/>
<path d="M0 0 C0.66 0.33 1.32 0.66 2 1 C2.32222776 5.67230248 2.43057686 8.13884627 0.3125 12.375 C-2.06568509 15.07456145 -3.57542144 16.04872818 -7 17 C-7 15 -7 15 -4.5625 12.4375 C-3.716875 11.633125 -2.87125 10.82875 -2 10 C-0.41727399 8.41727399 -0.65264253 6.61965997 -0.4375 4.4375 C-0.35371094 3.61121094 -0.26992187 2.78492187 -0.18359375 1.93359375 C-0.12300781 1.29550781 -0.06242188 0.65742187 0 0 Z " fill="#181A19" transform="translate(136,121)"/>
<path d="M0 0 C0 0.33 0 0.66 0 1 C-1.5778125 1.37125 -1.5778125 1.37125 -3.1875 1.75 C-6.83352778 2.80017433 -9.28355975 4.28355975 -12 7 C-12.86965506 9.12946603 -12.86965506 9.12946603 -13 11 C-13.66 11 -14.32 11 -15 11 C-15.4375 8.875 -15.4375 8.875 -15 6 C-10.73112655 0.42566067 -6.78641321 -0.71435929 0 0 Z " fill="#EF4C64" transform="translate(156,114)"/>
<path d="M0 0 C0.66 0 1.32 0 2 0 C2.680625 1.423125 2.680625 1.423125 3.375 2.875 C5.33065852 6.63588176 6.13024008 7.68688643 10.125 9.125 C11.548125 9.558125 11.548125 9.558125 13 10 C13 10.33 13 10.66 13 11 C9.26789965 11.34717213 7.45929542 11.2922789 4.25 9.25 C2.1636616 7.1636616 0.9773247 5.75427871 0 3 C0 2.01 0 1.02 0 0 Z " fill="#28241F" transform="translate(113,127)"/>
<path d="M0 0 C0.8125 1.625 0.8125 1.625 1 4 C-2.36239436 9.53168104 -2.36239436 9.53168104 -6.1171875 10.60546875 C-8.3125 10.875 -8.3125 10.875 -12 11 C-10.0283713 9.68558087 -8.02817985 8.41285866 -6 7.1875 C-2.98567863 4.98955734 -1.64801901 3.29603801 0 0 Z " fill="#1FB065" transform="translate(150,139)"/>
<path d="M0 0 C2.3125 2.125 2.3125 2.125 4 4 C3.01 5.485 3.01 5.485 2 7 C1.938125 6.38125 1.87625 5.7625 1.8125 5.125 C1.18508214 2.79341824 1.18508214 2.79341824 -1.1875 1.8125 C-4.1148728 0.96681452 -6.98376679 0.42086975 -10 0 C-10 -0.33 -10 -0.66 -10 -1 C-5.94051788 -2.15985203 -3.72865037 -2.00773481 0 0 Z " fill="#333333" transform="translate(133,116)"/>
<path d="M0 0 C0.66 1.32 1.32 2.64 2 4 C3.32 2.68 4.64 1.36 6 0 C6 3.69418201 4.71820705 5.77836178 3 9 C0.86928411 6.40608501 -0.53582673 4.36525621 -1 1 C-0.67 0.67 -0.34 0.34 0 0 Z " fill="#899CCB" transform="translate(90,70)"/>
<path d="M0 0 C0.66 0.99 1.32 1.98 2 3 C-1.69948187 6.61139896 -1.69948187 6.61139896 -4 8 C-7.375 7.8125 -7.375 7.8125 -10 7 C-10 6.67 -10 6.34 -10 6 C-8.3603125 5.62875 -8.3603125 5.62875 -6.6875 5.25 C-2.94091591 3.97997149 -1.89404734 3.34243648 0 0 Z " fill="#F15F74" transform="translate(162,130)"/>
<path d="M0 0 C0.66 0 1.32 0 2 0 C5 4.38461538 5 4.38461538 5 7 C5.66 7.33 6.32 7.66 7 8 C6.01 8.495 6.01 8.495 5 9 C1.7457985 6.16569547 0.4793247 4.31392226 0 0 Z " fill="#F0536A" transform="translate(141,128)"/>
<path d="M0 0 C2.4375 1.1875 2.4375 1.1875 5 3 C5.8125 5.6875 5.8125 5.6875 6 8 C2.57701423 6.85900474 1.85241234 5.99914379 0 3 C0 2.01 0 1.02 0 0 Z " fill="#EAE9E5" transform="translate(143,128)"/>
<path d="M0 0 C3.82946843 1.45255699 5.12050295 3.42895561 7 7 C5.1875 6.8125 5.1875 6.8125 3 6 C0 1.71428571 0 1.71428571 0 0 Z " fill="#EAE6DF" transform="translate(115,128)"/>
<path d="M0 0 C0.33 0.99 0.66 1.98 1 3 C-1.97 5.475 -1.97 5.475 -5 8 C-4.64950425 4.75791433 -4.43778819 3.38472296 -1.9375 1.1875 C-1.298125 0.795625 -0.65875 0.40375 0 0 Z " fill="#F2F2EA" transform="translate(107,128)"/>
<path d="M0 0 C2.31 0 4.62 0 7 0 C7 0.99 7 1.98 7 3 C4.69 2.67 2.38 2.34 0 2 C0 1.34 0 0.68 0 0 Z " fill="#4AA4D6" transform="translate(92,136)"/>
<path d="M0 0 C0.66 0.99 1.32 1.98 2 3 C-2.75 7 -2.75 7 -5 7 C-5 5 -5 5 -2.5 2.375 C-1.675 1.59125 -0.85 0.8075 0 0 Z " fill="#2A2A2A" transform="translate(134,131)"/>
<path d="M0 0 C0.66 0 1.32 0 2 0 C1.1875 2.4375 1.1875 2.4375 0 5 C-0.99 5.33 -1.98 5.66 -3 6 C-2.42655063 3.13275314 -2.1385485 2.1385485 0 0 Z " fill="#ECEFED" transform="translate(133,129)"/>
</svg>
